<svg width="89" height="88" viewBox="0 0 89 88" fill="none" xmlns="http://www.w3.org/2000/svg">
<path fill-rule="evenodd" clip-rule="evenodd" d="M44.5 0.25C20.3375 0.25 0.75 19.8375 0.75 44C0.75 68.1625 20.3375 87.75 44.5 87.75C68.6625 87.75 88.25 68.1625 88.25 44C88.2232 19.8486 68.6514 0.276754 44.5 0.25ZM64.127 32.4052L43.9347 62.6937C43.376 63.533 42.47 64.0771 41.4666 64.1759C41.3563 64.187 41.2455 64.1925 41.1346 64.1923C40.2421 64.1921 39.3863 63.8374 38.7552 63.2063L25.2936 49.7448C24.4436 48.8947 24.1116 47.6557 24.4227 46.4944C24.7339 45.3332 25.6409 44.4262 26.8021 44.115C27.9634 43.8039 29.2024 44.1359 30.0525 44.986L40.612 55.5439L58.5268 28.6717C59.19 27.6624 60.3432 27.0857 61.5485 27.1608C62.7539 27.2358 63.8267 27.951 64.3596 29.0348C64.8924 30.1186 64.8037 31.4048 64.127 32.4052Z" fill="#008641"/>
</svg>