<svg width="22" height="22" viewBox="0 0 22 22" fill="none" xmlns="http://www.w3.org/2000/svg">
<path fill-rule="evenodd" clip-rule="evenodd" d="M5.60787 11C5.60787 8.02215 8.02191 5.60812 10.9998 5.60812C12.4298 5.60812 13.8012 6.17619 14.8124 7.18737C15.8236 8.19854 16.3917 9.56999 16.3917 11C16.3917 13.9779 13.9776 16.3919 10.9998 16.3919C8.02191 16.3919 5.60787 13.9779 5.60787 11ZM10.9999 14.5001C9.06683 14.5001 7.49978 12.933 7.49978 11C7.49978 9.06694 9.06683 7.49989 10.9999 7.49989C12.9329 7.49989 14.5 9.06694 14.5 11C14.5 11.9283 14.1312 12.8185 13.4748 13.4749C12.8184 14.1313 11.9282 14.5001 10.9999 14.5001Z" fill="white"/>
<path d="M17.8648 5.39513C17.8648 6.09101 17.3007 6.65513 16.6048 6.65513C15.9089 6.65513 15.3448 6.09101 15.3448 5.39513C15.3448 4.69925 15.9089 4.13513 16.6048 4.13513C17.3007 4.13513 17.8648 4.69925 17.8648 5.39513Z" fill="white"/>
<path fill-rule="evenodd" clip-rule="evenodd" d="M10.9999 0.5C8.14839 0.5 7.78989 0.512 6.67089 0.5633C5.55189 0.6146 4.78989 0.7919 4.12089 1.0514C3.42019 1.31502 2.78543 1.72833 2.26089 2.2625C1.72672 2.78704 1.31341 3.4218 1.04979 4.1225C0.791493 4.79 0.614193 5.5532 0.563193 6.671C0.512193 7.7888 0.499893 8.1485 0.499893 11C0.499893 13.8515 0.511893 14.21 0.563193 15.329C0.614493 16.448 0.791793 17.21 1.05129 17.879C1.31492 18.5797 1.72823 19.2145 2.26239 19.739C2.78693 20.2732 3.42169 20.6865 4.12239 20.9501C4.79019 21.2096 5.55369 21.3872 6.67239 21.4382C7.79109 21.4892 8.14839 21.5 10.9999 21.5C13.8514 21.5 14.2099 21.488 15.3289 21.4367C16.4479 21.3854 17.2099 21.2081 17.8789 20.9486C19.2889 20.4028 20.4034 19.2879 20.9488 17.8778C21.2083 17.21 21.3859 16.4465 21.4369 15.3278C21.4879 14.2091 21.4999 13.8515 21.4999 11C21.4999 8.1485 21.4879 7.79 21.4366 6.671C21.3853 5.552 21.208 4.79 20.9485 4.121C20.6849 3.4203 20.2716 2.78554 19.7374 2.261C19.2129 1.72683 18.5781 1.31352 17.8774 1.0499C17.2099 0.7916 16.4467 0.6143 15.3289 0.5633C14.2111 0.5123 13.8514 0.5 10.9999 0.5ZM10.9998 2.39177C13.8033 2.39177 14.1354 2.40257 15.2427 2.45177C16.2663 2.49857 16.8225 2.66957 17.1927 2.81327C17.6829 3.00377 18.0327 3.23117 18.3999 3.59867C18.7671 3.96617 18.9948 4.31597 19.1853 4.80587C19.329 5.17577 19.5 5.73197 19.5468 6.75587C19.5972 7.86317 19.6068 8.19587 19.6068 10.9988C19.6068 13.8017 19.596 14.1344 19.5468 15.2417C19.5 16.2653 19.329 16.8215 19.1853 17.1917C18.9948 17.6819 18.7674 18.0317 18.3999 18.3989C18.0324 18.7661 17.6826 18.9938 17.1927 19.1843C16.8228 19.328 16.2666 19.499 15.2427 19.5458C14.1357 19.5962 13.8027 19.6058 10.9998 19.6058C8.19691 19.6058 7.86391 19.595 6.75691 19.5458C5.73331 19.499 5.17711 19.328 4.80691 19.1843C4.31671 18.9938 3.96691 18.7664 3.59971 18.3989C3.23251 18.0314 3.00481 17.6828 2.81431 17.1926C2.67061 16.8227 2.49961 16.2665 2.45281 15.2426C2.40241 14.1353 2.39281 13.8026 2.39281 10.9997C2.39281 8.19677 2.40361 7.86407 2.45281 6.75677C2.49961 5.73317 2.67061 5.17697 2.81431 4.80677C3.00481 4.31657 3.23221 3.96677 3.59971 3.59957C3.96721 3.23237 4.31701 3.00467 4.80691 2.81417C5.17681 2.67047 5.73301 2.49947 6.75691 2.45267C7.86421 2.40227 8.19691 2.39267 10.9998 2.39267V2.39177Z" fill="white"/>
</svg>