<svg width="22" height="18" viewBox="0 0 22 18" fill="none" xmlns="http://www.w3.org/2000/svg">
<path fill-rule="evenodd" clip-rule="evenodd" d="M21.5 2.79114C20.7274 3.13911 19.8959 3.37251 19.0267 3.4786C19.9169 2.93967 20.5972 2.08672 20.9205 1.06827C20.0891 1.569 19.1653 1.9297 18.1869 2.12491C17.4016 1.28044 16.2804 0.75 15.0417 0.75C12.6608 0.75 10.7334 2.69779 10.7334 5.10387C10.7334 5.44336 10.7711 5.7786 10.8467 6.09686C7.26485 5.91439 4.09028 4.18303 1.96551 1.54779C1.59598 2.1928 1.38182 2.93967 1.38182 3.73745C1.38182 5.24816 2.14187 6.58063 3.29664 7.36144C2.59118 7.34022 1.92771 7.14502 1.34403 6.81827C1.34403 6.83524 1.34403 6.85646 1.34403 6.87343C1.34403 8.98247 2.83053 10.7435 4.79994 11.1424C4.43881 11.24 4.05669 11.2952 3.66617 11.2952C3.38902 11.2952 3.12028 11.2697 2.85573 11.2188C3.40582 12.9502 4.9931 14.2063 6.87852 14.2402C5.40462 15.4072 3.54859 16.1031 1.52879 16.1031C1.18026 16.1031 0.840132 16.0819 0.5 16.0437C2.40642 17.2786 4.66977 18 7.10108 18C15.0249 18 19.3584 11.3673 19.3584 5.6131C19.3584 5.42638 19.3542 5.23542 19.3458 5.04871C20.1941 4.43339 20.9205 3.66531 21.5 2.79114Z" fill="white"/>
</svg>