<svg width="22" height="16" viewBox="0 0 22 16" fill="none" xmlns="http://www.w3.org/2000/svg">
<path fill-rule="evenodd" clip-rule="evenodd" d="M21.1782 3.76087C21.1782 3.76087 20.9368 2.29348 20.3736 1.64131C19.569 0.826088 18.6839 0.826088 18.2816 0.744566C15.3851 0.500001 10.9598 0.5 10.9598 0.5C10.9598 0.5 6.53448 0.500001 3.63793 0.744566C3.23563 0.826088 2.35057 0.826088 1.54598 1.64131C0.902299 2.29348 0.741379 3.76087 0.741379 3.76087C0.741379 3.76087 0.5 5.47283 0.5 7.18478V8.81522C0.5 10.5272 0.741379 12.2391 0.741379 12.2391C0.741379 12.2391 0.982759 13.7065 1.54598 14.3587C2.35057 15.1739 3.39655 15.1739 3.87931 15.2554C5.56897 15.4185 11.0402 15.5 11.0402 15.5C11.0402 15.5 15.4655 15.5 18.3621 15.2554C18.7644 15.1739 19.6494 15.1739 20.454 14.3587C21.0977 13.7065 21.2586 12.2391 21.2586 12.2391C21.2586 12.2391 21.5 10.5272 21.5 8.81522V7.18478C21.4195 5.47283 21.1782 3.76087 21.1782 3.76087ZM8.78736 10.7717V4.82065L14.4195 7.83696L8.78736 10.7717Z" fill="white"/>
</svg>